<?xml version="1.0" encoding="UTF-8"?>
<svg xmlns="http://www.w3.org/2000/svg" viewBox="0 0 100 100">
  <!-- Blue background -->
  <rect width="100" height="100" rx="20" fill="#0077b6" />
  
  <!-- Simplified whale -->
  <path d="M25 65 C25 55, 35 50, 50 50 C65 50, 75 45, 80 60 C80 70, 75 75, 70 75 L80 85 L70 75 C65 80, 55 80, 45 80 C35 80, 25 75, 25 65Z" fill="#4cc9f0" />
  
  <!-- Eye -->
  <circle cx="40" cy="60" r="3" fill="#ffffff" />
  
  <!-- Mouth -->
  <path d="M45 70 C50 73, 55 73, 60 70" stroke="#ffffff" stroke-width="2" fill="none" />
  
  <!-- Water waves -->
  <path d="M20 80 C30 77, 40 83, 50 80 C60 77, 70 83, 80 80" stroke="#ffffff" stroke-width="2" fill="none" />
</svg> 
